<svg width="3134" height="841" viewBox="0 0 3134 841" fill="none" xmlns="http://www.w3.org/2000/svg">
<path d="M3041.21 3.78223H3061.62L3087.44 67.433L3113.27 3.78223H3133.35V91.9385H3117.09V34.9711L3094.14 91.9385H3080.43L3057.79 34.9711V91.9385H3041.21V3.78223ZM2983.5 19.3767H2957.04V3.78223H3027.18V19.3767H3000.72V91.9385H2983.5V19.3767Z" fill="white"/>
<path d="M2334.08 827.935V20.8193H2795.29V136.122H2449.38V452.808H2795.29V710.468H2910.59V827.935H2795.29V710.468H2679.99V568.11H2449.38V827.935H2334.08ZM2795.29 452.808V136.122H2910.59V452.808H2795.29Z" fill="white"/>
<path d="M728.334 712.633V136.122H843.636V20.8193H1189.54V136.122H843.636V712.633H1189.54V827.935H843.636V712.633H728.334ZM1189.54 712.633V597.331H1304.85V712.633H1189.54ZM1189.54 251.424V136.122H1247.19H1304.85V251.424H1247.19H1189.54Z" fill="white"/>
<path d="M1816.98 831.637C1742.42 831.637 1674.77 813.957 1614.05 778.598C1554.09 742.47 1506.82 693.274 1472.23 631.011C1438.4 567.979 1421.49 497.261 1421.49 418.855C1421.49 340.45 1438.4 270.115 1472.23 207.852C1506.82 144.82 1554.09 95.6245 1614.05 60.2652C1674.77 24.1372 1742.42 6.07317 1816.98 6.07317C1892.31 6.07317 1959.95 24.1372 2019.91 60.2652C2080.64 95.6245 2127.91 144.82 2161.73 207.852C2196.32 270.115 2213.62 340.45 2213.62 418.855C2213.62 497.261 2196.32 567.979 2161.73 631.011C2127.91 693.274 2080.64 742.47 2019.91 778.598C1959.95 813.957 1892.31 831.637 1816.98 831.637ZM1816.98 737.996C1872.32 737.996 1922.67 724.16 1968.03 696.487C2013.38 668.046 2048.74 634.086 2074.1 584.89C2099.47 535.695 2112.15 480.35 2112.15 418.855C2112.15 357.361 2099.47 302.016 2074.1 252.82C2048.74 203.624 2013.38 172.478 1968.03 144.805C1922.67 116.364 1872.32 102.144 1816.98 102.144C1761.63 102.144 1711.29 116.364 1665.93 144.805C1621.35 172.478 1586.38 203.624 1561.01 252.82C1535.64 302.016 1522.96 357.361 1522.96 418.855C1522.96 480.35 1535.64 535.695 1561.01 584.89C1586.38 634.086 1621.35 668.046 1665.93 696.487C1711.29 724.16 1761.63 737.996 1816.98 737.996Z" fill="white"/>
<path fill-rule="evenodd" clip-rule="evenodd" d="M1610.95 783.823L1610.91 783.8C1550.03 747.114 1502.01 697.135 1466.92 633.961L1466.9 633.922L1466.87 633.883C1432.53 569.885 1415.42 498.164 1415.42 418.855C1415.42 339.547 1432.53 268.198 1466.89 204.953L1466.9 204.93C1502 140.977 1550.03 90.9712 1610.95 55.0388C1672.67 18.3254 1741.39 0 1816.98 0C1893.31 0 1962.04 18.3139 2023.01 55.0394C2084.69 90.9657 2132.73 140.972 2167.06 204.943C2202.19 268.187 2219.69 339.541 2219.69 418.855C2219.69 498.187 2202.18 569.925 2167.06 633.931C2132.72 697.142 2084.68 747.133 2023.02 783.817L2023 783.829C1962.03 819.785 1893.3 837.71 1816.98 837.71C1741.41 837.71 1672.7 819.779 1610.99 783.846L1610.95 783.823ZM2161.73 631.011C2196.32 567.979 2213.62 497.261 2213.62 418.855C2213.62 340.45 2196.32 270.115 2161.73 207.852C2127.91 144.82 2080.64 95.6245 2019.91 60.2652C1959.95 24.1372 1892.31 6.07317 1816.98 6.07317C1742.42 6.07317 1674.77 24.1372 1614.05 60.2652C1554.09 95.6245 1506.82 144.82 1472.23 207.852C1438.4 270.115 1421.49 340.45 1421.49 418.855C1421.49 497.261 1438.4 567.979 1472.23 631.011C1506.82 693.274 1554.09 742.47 1614.05 778.598C1674.77 813.957 1742.42 831.637 1816.98 831.637C1892.31 831.637 1959.95 813.957 2019.91 778.598C2080.64 742.47 2127.91 693.274 2161.73 631.011ZM1964.83 149.97L1964.8 149.951C1920.45 122.137 1871.22 108.217 1816.98 108.217C1762.74 108.217 1713.51 122.137 1669.16 149.951L1669.14 149.966C1625.16 177.261 1591.12 207.676 1566.41 255.603C1541.53 303.846 1529.03 358.22 1529.03 418.855C1529.03 479.49 1541.53 533.864 1566.41 582.107C1591.18 630.146 1625.3 663.354 1669.15 691.335C1713.49 718.38 1762.72 731.923 1816.98 731.923C1871.24 731.923 1920.48 718.376 1964.83 691.323C2009.45 663.334 2043.94 630.128 2068.71 582.107C2093.58 533.864 2106.08 479.49 2106.08 418.855C2106.08 358.22 2093.58 303.846 2068.71 255.603C2044.01 207.701 2009.6 177.29 1964.86 149.99L1964.83 149.97ZM1968.03 696.487C1922.67 724.16 1872.32 737.996 1816.98 737.996C1761.63 737.996 1711.29 724.16 1665.93 696.487C1621.35 668.046 1586.38 634.086 1561.01 584.89C1535.64 535.695 1522.96 480.35 1522.96 418.855C1522.96 357.361 1535.64 302.016 1561.01 252.82C1586.38 203.624 1621.35 172.478 1665.93 144.805C1711.29 116.364 1761.63 102.144 1816.98 102.144C1872.32 102.144 1922.67 116.364 1968.03 144.805C2013.38 172.478 2048.74 203.624 2074.1 252.82C2099.47 302.016 2112.15 357.361 2112.15 418.855C2112.15 480.35 2099.47 535.695 2074.1 584.89C2048.74 634.086 2013.38 668.046 1968.03 696.487Z" fill="white"/>
<path d="M314.411 832.866C254.454 832.866 201.8 821.72 156.447 799.428C111.864 776.368 76.5046 744.468 50.3694 703.728C25.0029 662.219 10.7823 614.176 7.7076 559.6H104.561C109.942 616.482 130.697 661.45 166.825 694.503C203.721 727.557 252.917 744.083 314.411 744.083C372.831 744.083 419.337 732.553 453.927 709.493C489.287 685.664 506.966 650.304 506.966 603.415C506.966 573.436 497.742 549.223 479.294 530.774C461.614 512.326 438.938 497.721 411.265 486.959C384.362 476.198 347.081 464.283 299.422 451.216C241.771 435.073 195.65 419.7 161.06 405.095C126.469 390.49 96.8747 368.582 72.2768 339.372C47.679 309.394 35.3801 270.191 35.3801 221.764C35.3801 179.487 46.526 142.206 68.8178 109.921C91.8782 77.6365 124.163 52.6543 165.672 34.9746C207.949 16.5263 255.607 7.30211 308.646 7.30211C361.685 7.30211 408.959 17.295 450.468 37.2806C492.746 56.4977 526.183 84.1702 550.781 120.298C575.379 156.426 589.599 198.319 593.443 245.978H496.589C491.977 200.625 472.76 164.497 438.938 137.594C405.885 109.921 362.454 96.0848 308.646 96.0848C254.839 96.0848 212.177 107.231 180.661 129.522C149.914 151.814 134.54 182.561 134.54 221.764C134.54 250.974 143.38 274.803 161.06 293.252C179.508 310.931 201.8 324.768 227.935 334.76C254.839 344.753 291.735 355.899 338.625 368.198C397.045 382.803 444.319 397.408 480.447 412.013C516.575 426.618 546.938 449.294 571.536 480.041C596.902 510.788 609.585 551.913 609.585 603.415C609.585 651.073 596.902 692.197 571.536 726.788C546.938 761.379 511.963 787.898 466.61 806.347C422.027 824.026 371.294 832.866 314.411 832.866Z" fill="white"/>
<path fill-rule="evenodd" clip-rule="evenodd" d="M153.168 805.931L153.102 805.897C107.427 782.272 71.0891 749.515 44.2377 707.658L44.1947 707.591L44.1532 707.523C18.0858 664.867 3.56752 615.631 0.433676 560.005L0 552.307H111.195L111.819 558.909C117.059 614.296 137.16 657.465 171.718 689.096C206.974 720.665 254.279 736.791 314.414 736.791C371.948 736.791 416.876 725.427 449.874 703.433C482.987 681.11 499.681 648.153 499.681 603.41C499.681 575.052 491.018 552.798 474.143 535.923L474.088 535.868L474.034 535.812C457.2 518.246 435.468 504.185 408.626 493.747L408.594 493.734L408.561 493.721C382.028 483.108 345.048 471.277 297.497 458.239L297.479 458.234L297.46 458.229C239.664 442.046 193.216 426.577 158.227 411.804C122.558 396.744 92.0304 374.137 66.7047 344.062L66.6747 344.027L66.6452 343.991C40.7334 312.411 28.0947 271.442 28.0947 221.76C28.0947 178.124 39.6247 139.373 62.823 105.776L62.856 105.728L62.8898 105.681C86.8256 72.1704 120.235 46.4079 162.789 28.2776C206.106 9.38102 254.768 0.00976562 308.649 0.00976562C362.586 0.00976562 410.943 10.1708 453.56 30.675C496.94 50.4076 531.425 78.9114 556.808 116.192C582.182 153.461 596.774 196.591 600.709 245.387L601.344 253.261H490.007L489.341 246.71C484.915 203.192 466.597 168.901 434.403 143.292L434.332 143.236L434.262 143.177C402.82 116.854 361.183 103.368 308.649 103.368C255.792 103.368 214.789 114.32 184.906 135.443C156.144 156.311 141.83 184.818 141.83 221.76C141.83 249.32 150.096 271.213 166.217 288.094C183.871 304.981 205.262 318.279 230.509 327.937C257.075 337.802 293.683 348.87 340.435 361.133C399.008 375.778 446.627 390.475 483.181 405.252C520.464 420.324 551.83 443.75 577.195 475.441C603.896 507.83 616.875 550.741 616.875 603.41C616.875 652.418 603.81 695.081 577.446 731.051C551.93 766.913 515.774 794.212 469.359 813.093L469.329 813.105L469.299 813.116C423.718 831.192 372.048 840.149 314.414 840.149C253.548 840.149 199.758 828.831 153.235 805.964L153.168 805.931ZM571.536 726.788C596.902 692.197 609.585 651.073 609.585 603.415C609.585 551.913 596.902 510.788 571.536 480.041C546.938 449.294 516.575 426.618 480.447 412.013C444.319 397.408 397.045 382.803 338.625 368.198C291.735 355.899 254.839 344.753 227.935 334.76C201.8 324.768 179.508 310.931 161.06 293.252C143.38 274.803 134.54 250.974 134.54 221.764C134.54 182.561 149.914 151.814 180.661 129.522C212.177 107.231 254.839 96.0848 308.646 96.0848C362.454 96.0848 405.885 109.921 438.938 137.594C472.76 164.497 491.977 200.625 496.589 245.978H593.443C593.246 243.533 593.024 241.099 592.772 238.685C588.116 194.033 574.117 154.573 550.781 120.298C526.183 84.1702 492.746 56.4977 450.468 37.2806C408.959 17.295 361.685 7.30211 308.646 7.30211C255.607 7.30211 207.949 16.5263 165.672 34.9746C124.163 52.6543 91.8782 77.6365 68.8178 109.921C46.526 142.206 35.3801 179.487 35.3801 221.764C35.3801 270.191 47.679 309.394 72.2768 339.372C96.8747 368.582 126.469 390.49 161.06 405.095C195.65 419.7 241.771 435.073 299.422 451.216C347.081 464.283 384.362 476.198 411.265 486.959C438.938 497.721 461.614 512.326 479.294 530.774C497.742 549.223 506.966 573.436 506.966 603.415C506.966 650.304 489.287 685.664 453.927 709.493C419.337 732.553 372.831 744.083 314.411 744.083C252.917 744.083 203.721 727.557 166.825 694.503C130.697 661.45 109.942 616.482 104.561 559.6H7.7076C7.8452 562.042 8.00745 564.467 8.18969 566.883C12.0798 618.458 26.1381 664.076 50.3694 703.728C76.5046 744.468 111.864 776.368 156.447 799.428C201.8 821.72 254.454 832.866 314.411 832.866C371.294 832.866 422.027 824.026 466.61 806.347C511.963 787.898 546.938 761.379 571.536 726.788Z" fill="white"/>
</svg>
